HIERARCHY
ROOT hip
{
  OFFSET 45.3898 81.4154 206.629
  CHANNELS 6 Xposition Yposition Zposition Zrotation Xrotation Yrotation
  JOINT abdomen
  {
    OFFSET 0 20.6881 -0.73152
    CHANNELS 3 Zrotation Xrotation Yrotation
    JOINT chest
    {
      OFFSET 0 11.7043 -0.48768
      CHANNELS 3 Zrotation Xrotation Yrotation
      JOINT neck
      {
        OFFSET 0 22.1894 -2.19456
        CHANNELS 3 Zrotation Xrotation Yrotation
        JOINT head
        {
          OFFSET -0.24384 7.07133 1.2192
          CHANNELS 3 Zrotation Xrotation Yrotation
          JOINT leftEye
          {
            OFFSET 4.14528 8.04674 8.04672
            CHANNELS 3 Zrotation Xrotation Yrotation
            End Site
            {
              OFFSET 1 0 0
            }
          }
          JOINT rightEye
          {
            OFFSET -3.6576 8.04674 8.04672
            CHANNELS 3 Zrotation Xrotation Yrotation
            End Site
            {
              OFFSET 1 0 0
            }
          }
        }
      }
      JOINT rCollar
      {
        OFFSET -2.68224 19.2634 -4.8768
        CHANNELS 3 Zrotation Xrotation Yrotation
        JOINT rShldr
        {
          OFFSET -8.77824 -1.95073 1.46304
          CHANNELS 3 Zrotation Xrotation Yrotation
          JOINT rForeArm
          {
            OFFSET -28.1742 -1.7115 0.48768
            CHANNELS 3 Zrotation Xrotation Yrotation
            JOINT rHand
            {
              OFFSET -22.5879 0.773209 7.07136
              CHANNELS 3 Zrotation Xrotation Yrotation
              JOINT rThumb1
              {
                OFFSET -1.2192 -0.487915 3.41376
                CHANNELS 3 Zrotation Xrotation Yrotation
                JOINT rThumb2
                {
                  OFFSET -3.37035 -0.52449 3.41376
                  CHANNELS 3 Zrotation Xrotation Yrotation
                  End Site
                  {
                    OFFSET -1.78271 -1.18214 1.43049
                  }
                }
              }
              JOINT rIndex1
              {
                OFFSET -7.75947 0.938293 5.60832
                CHANNELS 3 Zrotation Xrotation Yrotation
                JOINT rIndex2
                {
                  OFFSET -2.54057 -0.884171 1.56538
                  CHANNELS 3 Zrotation Xrotation Yrotation
                  End Site
                  {
                    OFFSET -1.62519 -0.234802 1.16502
                  }
                }
              }
              JOINT rMid1
              {
                OFFSET -8.24714 1.18213 3.41376
                CHANNELS 3 Zrotation Xrotation Yrotation
                JOINT rMid2
                {
                  OFFSET -3.10165 -0.590103 1.0647
                  CHANNELS 3 Zrotation Xrotation Yrotation
                  End Site
                  {
                    OFFSET -2.48547 -0.328903 0.83742
                  }
                }
              }
              JOINT rRing1
              {
                OFFSET -8.82822 0.546677 1.51678
                CHANNELS 3 Zrotation Xrotation Yrotation
                JOINT rRing2
                {
                  OFFSET -2.60934 -0.819778 -0.0198488
                  CHANNELS 3 Zrotation Xrotation Yrotation
                  End Site
                  {
                    OFFSET -2.33842 -0.294052 0.168128
                  }
                }
              }
              JOINT rPinky1
              {
                OFFSET -8.27202 -0.0477905 -0.4584
                CHANNELS 3 Zrotation Xrotation Yrotation
                JOINT rPinky2
                {
                  OFFSET -1.82734 -0.647385 -0.700984
                  CHANNELS 3 Zrotation Xrotation Yrotation
                  End Site
                  {
                    OFFSET -1.69225 -0.51767 -0.607171
                  }
                }
              }
            }
          }
        }
      }
      JOINT lCollar
      {
        OFFSET 2.68224 19.2634 -4.8768
        CHANNELS 3 Zrotation Xrotation Yrotation
        JOINT lShldr
        {
          OFFSET 8.77824 -1.95073 1.46304
          CHANNELS 3 Zrotation Xrotation Yrotation
          JOINT lForeArm
          {
            OFFSET 28.1742 -1.7115 0.48768
            CHANNELS 3 Zrotation Xrotation Yrotation
            JOINT lHand
            {
              OFFSET 22.5879 0.773209 7.07136
              CHANNELS 3 Zrotation Xrotation Yrotation
              JOINT lThumb1
              {
                OFFSET 1.2192 -0.487915 3.41376
                CHANNELS 3 Zrotation Xrotation Yrotation
                JOINT lThumb2
                {
                  OFFSET 3.37035 -0.52449 3.41376
                  CHANNELS 3 Zrotation Xrotation Yrotation
                  End Site
                  {
                    OFFSET 1.78271 -1.18214 1.43049
                  }
                }
              }
              JOINT lIndex1
              {
                OFFSET 7.75947 0.938293 5.60832
                CHANNELS 3 Zrotation Xrotation Yrotation
                JOINT lIndex2
                {
                  OFFSET 2.54057 -0.884171 1.56538
                  CHANNELS 3 Zrotation Xrotation Yrotation
                  End Site
                  {
                    OFFSET 1.62519 -0.234802 1.16502
                  }
                }
              }
              JOINT lMid1
              {
                OFFSET 8.24714 1.18213 3.41376
                CHANNELS 3 Zrotation Xrotation Yrotation
                JOINT lMid2
                {
                  OFFSET 3.10165 -0.590103 1.0647
                  CHANNELS 3 Zrotation Xrotation Yrotation
                  End Site
                  {
                    OFFSET 2.48547 -0.328903 0.83742
                  }
                }
              }
              JOINT lRing1
              {
                OFFSET 8.82822 0.546677 1.51678
                CHANNELS 3 Zrotation Xrotation Yrotation
                JOINT lRing2
                {
                  OFFSET 2.60934 -0.819778 -0.0198488
                  CHANNELS 3 Zrotation Xrotation Yrotation
                  End Site
                  {
                    OFFSET 2.33842 -0.294052 0.168128
                  }
                }
              }
              JOINT lPinky1
              {
                OFFSET 8.27202 -0.0477905 -0.4584
                CHANNELS 3 Zrotation Xrotation Yrotation
                JOINT lPinky2
                {
                  OFFSET 1.82734 -0.647385 -0.700984
                  CHANNELS 3 Zrotation Xrotation Yrotation
                  End Site
                  {
                    OFFSET 1.69225 -0.51767 -0.607171
                  }
                }
              }
            }
          }
        }
      }
    }
  }
  JOINT rButtock
  {
    OFFSET -8.77824 4.35084 1.2192
    CHANNELS 3 Zrotation Xrotation Yrotation
    JOINT rThigh
    {
      OFFSET 0 -1.70687 -2.19456
      CHANNELS 3 Zrotation Xrotation Yrotation
      JOINT rShin
      {
        OFFSET 0 -36.8199 0.73152
        CHANNELS 3 Zrotation Xrotation Yrotation
        JOINT rFoot
        {
          OFFSET 0.73152 -45.1104 -5.12064
          CHANNELS 3 Zrotation Xrotation Yrotation
          End Site
          {
            OFFSET -1.1221 -3.69964 12.103
          }
        }
      }
    }
  }
  JOINT lButtock
  {
    OFFSET 8.77824 4.35084 1.2192
    CHANNELS 3 Zrotation Xrotation Yrotation
    JOINT lThigh
    {
      OFFSET 0 -1.70687 -2.19456
      CHANNELS 3 Zrotation Xrotation Yrotation
      JOINT lShin
      {
        OFFSET 0 -36.8199 0.73152
        CHANNELS 3 Zrotation Xrotation Yrotation
        JOINT lFoot
        {
          OFFSET -0.73152 -45.1104 -5.12064
          CHANNELS 3 Zrotation Xrotation Yrotation
          End Site
          {
            OFFSET 1.1221 -3.69964 12.103
          }
        }
      }
    }
  }
}
MOTION
Frames:	9
Frame Time:	0.00833333
29.8492 80.4804 27.5691 -2.56821 -6.91431 76.0066 7.42466 47.4157 0.274069 4.53127 -10.5914 0.682775 -3.83722 4.47595 -2.72948 -8.33275 -34.906 -7.98705 -0 0 0 -0 0 0 -1.55448e-013 -6.87664e-013 2.43872e-014 51.5188 27.2496 23.25 -26.2119 -23.9797 57.4693 -2.41407 39.5402 6.67236 -2.03351e-009 1.28483e-009 -4.85978e-010 -3.52244e-009 2.22403e-009 -7.77416e-010 -2.03351e-009 1.28483e-009 -4.85981e-010 7.73091 5.47488 0.417314 -2.03351e-009 1.28483e-009 -4.85977e-010 2.90554 0.965183 0.102902 -2.03351e-009 1.28483e-009 -4.85976e-010 10.2786 0.731801 0.0259123 -2.03352e-009 1.28483e-009 -4.85966e-010 2.22167 -0.733487 -0.20892 -1.5538e-013 -6.87653e-013 2.42199e-014 -89.3993 21.0295 11.1017 21.7982 -15.4573 -43.2476 0.00293852 -1.86657 0.262313 2.61431e-009 -1.06633e-010 2.16529e-010 4.52263e-009 -1.74489e-010 3.80007e-010 2.61431e-009 -1.06631e-010 2.16542e-010 -7.73091 5.47488 -0.417314 2.61431e-009 -1.06636e-010 2.16527e-010 -2.90554 0.965183 -0.102902 2.61431e-009 -1.06631e-010 2.16531e-010 -10.2786 0.731801 -0.0259123 2.61431e-009 -1.0663e-010 2.16521e-010 -2.22167 -0.733487 0.20892 -2.03217e-016 0 -3.88251e-019 -11.9595 -25.5392 0.2361 -0.77211 53.9057 1.08977 -8.12956 -18.2777 -16.3734 2.03217e-016 0 3.88251e-019 18.3256 -29.8684 -8.85175 0.343685 39.4356 -0.412679 -0.546993 9.83189 12.2646 
30.0432 80.2492 28.6964 -2.51913 -6.61823 76.3462 7.80745 47.5244 0.574728 4.46402 -10.629 0.79237 -3.34431 3.91841 -2.71535 -9.70565 -34.4394 -8.45527 -0 0 0 -0 0 0 -1.3044e-013 -5.94768e-013 2.23633e-014 51.4215 26.1506 24.1486 -25.44 -22.0745 54.5559 -2.2102 38.2668 6.3649 -7.59013e-010 4.088e-010 -1.32454e-010 -1.31389e-009 6.99891e-010 -2.05945e-010 -7.59013e-010 4.08804e-010 -1.32454e-010 7.73091 5.47488 0.417314 -7.59013e-010 4.08799e-010 -1.32451e-010 2.90554 0.965183 0.102902 -7.59015e-010 4.08799e-010 -1.32451e-010 10.2786 0.731801 0.0259123 -7.59019e-010 4.08803e-010 -1.32441e-010 2.22167 -0.733487 -0.20892 -1.30374e-013 -5.94759e-013 2.21645e-014 -89.5262 21.9101 10.8487 21.764 -15.4069 -43.1564 0.000832825 -0.824001 0.115814 2.38115e-009 9.13754e-010 5.39368e-010 4.11686e-009 1.58838e-009 9.36844e-010 2.38115e-009 9.13757e-010 5.39381e-010 -7.73091 5.47488 -0.417314 2.38116e-009 9.13751e-010 5.39368e-010 -2.90554 0.965183 -0.102902 2.38115e-009 9.13757e-010 5.39371e-010 -10.2786 0.731801 -0.0259123 2.38115e-009 9.13757e-010 5.39362e-010 -2.22167 -0.733487 0.20892 -2.03217e-016 0 -3.88251e-019 -12.2216 -25.421 0.815907 -0.758402 53.6199 1.08254 -8.31252 -18.4303 -16.655 2.03217e-016 0 3.88251e-019 18.9426 -29.5795 -9.11584 0.340584 39.1619 -0.395852 -0.751433 10.6267 12.66 
30.2355 80.0474 29.8799 -2.49529 -6.33041 76.6916 8.18241 47.6251 0.884387 4.35367 -10.6147 0.897089 -3.07601 3.64093 -2.72596 -10.6016 -34.4959 -8.85139 -0 0 0 -0 0 0 -2.30001e-014 -5.52401e-017 -6.62065e-014 51.4875 24.9378 24.9916 -24.6275 -20.3403 51.7995 -1.89997 36.0688 5.86549 1.91613e-010 -2.0055e-010 2.59762e-010 3.36542e-010 -3.59376e-010 4.44755e-010 1.91613e-010 -2.00548e-010 2.59762e-010 7.73091 5.47488 0.417314 1.91613e-010 -2.00552e-010 2.59767e-010 2.90554 0.965183 0.102902 1.91613e-010 -2.00553e-010 2.59765e-010 10.2786 0.731801 0.0259123 1.91608e-010 -2.00549e-010 2.59775e-010 2.22167 -0.733487 -0.20892 -2.29545e-014 -5.04425e-017 -6.64158e-014 -89.5861 22.8068 10.5573 21.7456 -15.3798 -43.1081 -9.72103e-005 0.158267 -0.0221558 1.38062e-009 3.90013e-010 2.18076e-010 2.38605e-009 6.78696e-010 3.79322e-010 1.38061e-009 3.90015e-010 2.18087e-010 -7.73091 5.47488 -0.417314 1.38062e-009 3.9001e-010 2.18077e-010 -2.90554 0.965183 -0.102902 1.38062e-009 3.90015e-010 2.18079e-010 -10.2786 0.731801 -0.0259123 1.38062e-009 3.90016e-010 2.18071e-010 -2.22167 -0.733487 0.20892 -2.03217e-016 0 -3.88251e-019 -12.5246 -25.3349 1.46991 -0.74536 53.3401 1.0752 -8.38203 -18.4951 -16.7461 2.03217e-016 0 3.88251e-019 19.5027 -29.3108 -9.30366 0.33838 38.9194 -0.380436 -0.93295 11.655 12.4116 
30.4194 79.875 31.0958 -2.49907 -6.02445 77.0502 8.58968 47.7035 1.20982 4.19966 -10.5734 1.00451 -2.90834 3.49986 -2.75499 -11.3069 -34.8071 -9.24572 -0 0 0 -0 0 0 1.41259e-013 9.2835e-013 -2.08795e-013 51.7024 23.6068 25.7631 -23.7995 -18.7431 49.055 -1.5619 33.1781 5.26281 1.09206e-009 -7.48382e-010 7.05063e-010 1.90152e-009 -1.31039e-009 1.19028e-009 1.09206e-009 -7.48384e-010 7.05062e-010 7.73091 5.47488 0.417314 1.09206e-009 -7.48386e-010 7.05069e-010 2.90554 0.965183 0.102902 1.09206e-009 -7.48387e-010 7.05066e-010 10.2786 0.731801 0.0259123 1.09206e-009 -7.48385e-010 7.05076e-010 2.22167 -0.733487 -0.20892 1.4127e-013 9.28349e-013 -2.09003e-013 -89.5981 23.753 10.2613 21.7423 -15.3749 -43.0992 0.000620097 1.12601 -0.158165 -1.94309e-010 -1.00563e-009 -4.85274e-010 -3.37126e-010 -1.74053e-009 -8.3943e-010 -1.94315e-010 -1.00563e-009 -4.85267e-010 -7.73091 5.47488 -0.417314 -1.94308e-010 -1.00564e-009 -4.85272e-010 -2.90554 0.965183 -0.102902 -1.94311e-010 -1.00563e-009 -4.85272e-010 -10.2786 0.731801 -0.0259123 -1.94308e-010 -1.00563e-009 -4.85277e-010 -2.22167 -0.733487 0.20892 -2.03217e-016 0 -3.88251e-019 -12.82 -25.276 2.20853 -0.731684 53.0414 1.06742 -8.36832 -18.4984 -16.6999 2.03217e-016 0 3.88251e-019 20.0328 -29.0756 -9.42345 0.337168 38.7164 -0.366336 -1.06721 12.8884 11.6526 
30.6424 79.7442 32.3542 -2.53612 -5.75315 77.4002 8.98366 47.7491 1.52314 4.04111 -10.5152 1.10647 -2.83351 3.4275 -2.79793 -11.8338 -35.2459 -9.61268 -0 0 0 -0 0 0 3.03263e-013 1.85237e-012 -3.54268e-013 52.1063 22.0016 26.3983 -22.9229 -17.2152 46.3351 -1.23752 29.8739 4.62734 1.87559e-009 -1.1544e-009 1.06719e-009 3.26297e-009 -2.01432e-009 1.79721e-009 1.87559e-009 -1.15441e-009 1.06719e-009 7.73091 5.47488 0.417314 1.87559e-009 -1.15441e-009 1.0672e-009 2.90554 0.965183 0.102902 1.87559e-009 -1.15441e-009 1.06719e-009 10.2786 0.731801 0.0259123 1.87558e-009 -1.15441e-009 1.0672e-009 2.22167 -0.733487 -0.20892 3.03229e-013 1.85236e-012 -3.5447e-013 -89.6071 24.6539 9.98993 21.7482 -15.3837 -43.1147 0.00373167 1.98102 -0.278463 -1.76871e-009 -2.5527e-009 -1.23965e-009 -3.05908e-009 -4.42154e-009 -2.14629e-009 -1.76872e-009 -2.5527e-009 -1.23964e-009 -7.73091 5.47488 -0.417314 -1.76871e-009 -2.5527e-009 -1.23964e-009 -2.90554 0.965183 -0.102902 -1.76871e-009 -2.5527e-009 -1.23965e-009 -10.2786 0.731801 -0.0259123 -1.76871e-009 -2.5527e-009 -1.23965e-009 -2.22167 -0.733487 0.20892 -2.03217e-016 0 -3.88251e-019 -13.1788 -25.2083 2.96337 -0.716015 52.6853 1.05648 -8.32558 -18.3694 -16.6733 2.03217e-016 0 3.88251e-019 20.4345 -28.8726 -9.50645 0.33689 38.5832 -0.357174 -1.08027 14.0647 10.4629 
30.8882 79.5978 33.704 -2.61099 -5.56474 77.7164 9.3192 47.7522 1.7961 3.91725 -10.4502 1.19481 -2.8438 3.35615 -2.85029 -12.1893 -35.6859 -9.92336 -0 0 0 -0 0 0 4.03936e-013 2.43393e-012 -4.5149e-013 52.7359 19.9672 26.8441 -21.9565 -15.6921 43.672 -0.941598 26.4375 4.00708 2.47545e-009 -1.33831e-009 1.20989e-009 4.30282e-009 -2.33233e-009 2.03214e-009 2.47545e-009 -1.33832e-009 1.20989e-009 7.73091 5.47488 0.417314 2.47545e-009 -1.33832e-009 1.2099e-009 2.90554 0.965183 0.102902 2.47545e-009 -1.33832e-009 1.20989e-009 10.2786 0.731801 0.0259123 2.47544e-009 -1.33832e-009 1.2099e-009 2.22167 -0.733487 -0.20892 4.03852e-013 2.43391e-012 -4.51688e-013 -89.6619 25.4141 9.77286 21.7577 -15.3977 -43.1397 0.00845908 2.62508 -0.369192 -2.76767e-009 -3.53072e-009 -1.71401e-009 -4.78624e-009 -6.11655e-009 -2.96815e-009 -2.76768e-009 -3.53072e-009 -1.714e-009 -7.73091 5.47488 -0.417314 -2.76767e-009 -3.53072e-009 -1.714e-009 -2.90554 0.965183 -0.102902 -2.76767e-009 -3.53072e-009 -1.71401e-009 -10.2786 0.731801 -0.0259123 -2.76767e-009 -3.53071e-009 -1.71401e-009 -2.22167 -0.733487 0.20892 -2.03217e-016 0 -3.88251e-019 -13.6739 -25.0975 3.66538 -0.697172 52.2328 1.03987 -8.3068 -18.0376 -16.8237 2.03217e-016 0 3.88251e-019 20.6098 -28.7008 -9.58356 0.337452 38.5502 -0.356552 -0.925697 14.9138 8.92363 
31.1098 79.4336 35.1232 -2.72883 -5.47163 78.0022 9.59141 47.7129 2.02709 3.83282 -10.3727 1.26891 -2.97181 3.28994 -2.92297 -12.3366 -36.1641 -10.1882 -0 0 0 -0 0 0 4.20883e-013 2.57318e-012 -4.9872e-013 53.5728 17.4413 27.131 -20.9028 -14.2028 40.9484 -0.655879 22.6975 3.36431 2.99008e-009 -1.13637e-009 9.92032e-010 5.1889e-009 -1.97986e-009 1.65339e-009 2.99009e-009 -1.13638e-009 9.92028e-010 7.73091 5.47488 0.417314 2.99008e-009 -1.13638e-009 9.92036e-010 2.90554 0.965183 0.102902 2.99009e-009 -1.13638e-009 9.92034e-010 10.2786 0.731801 0.0259123 2.99008e-009 -1.13638e-009 9.92043e-010 2.22167 -0.733487 -0.20892 4.20727e-013 2.57314e-012 -4.9892e-013 -89.8015 25.9735 9.62187 21.772 -15.4189 -43.1779 0.0127789 3.05662 -0.430031 -2.90227e-009 -3.78146e-009 -1.80464e-009 -5.01908e-009 -6.55161e-009 -3.12551e-009 -2.90229e-009 -3.78146e-009 -1.80463e-009 -7.73091 5.47488 -0.417314 -2.90227e-009 -3.78146e-009 -1.80463e-009 -2.90554 0.965183 -0.102902 -2.90228e-009 -3.78146e-009 -1.80463e-009 -10.2786 0.731801 -0.0259123 -2.90227e-009 -3.78146e-009 -1.80464e-009 -2.22167 -0.733487 0.20892 -2.03217e-016 0 -3.88251e-019 -14.3311 -24.96 4.28832 -0.675439 51.6767 1.01711 -8.33337 -17.3666 -17.2969 2.03217e-016 0 3.88251e-019 20.5066 -28.5698 -9.70654 0.338689 38.6214 -0.367142 -0.560695 15.5363 6.68507 
31.2987 79.3318 36.5633 -2.88432 -5.44234 78.265 9.82328 47.636 2.22823 3.76876 -10.2801 1.33257 -3.21005 3.25757 -3.01431 -12.2854 -36.7249 -10.4176 -0 0 0 -0 0 0 3.87823e-013 2.45365e-012 -5.19266e-013 54.5914 14.5168 27.3232 -19.8039 -12.8004 38.1534 -0.411362 18.5845 2.69896 3.41635e-009 -6.3885e-010 5.21219e-010 5.91774e-009 -1.11347e-009 8.45262e-010 3.41636e-009 -6.38848e-010 5.21214e-010 7.73091 5.47488 0.417314 3.41635e-009 -6.3885e-010 5.21219e-010 2.90554 0.965183 0.102902 3.41636e-009 -6.3885e-010 5.2122e-010 10.2786 0.731801 0.0259123 3.41635e-009 -6.38849e-010 5.21229e-010 2.22167 -0.733487 -0.20892 3.87578e-013 2.4536e-012 -5.19468e-013 -89.9968 26.3939 9.52072 21.7934 -15.4503 -43.2347 0.0151957 3.31982 -0.467155 -2.52434e-009 -3.67788e-009 -1.69324e-009 -4.36572e-009 -6.3726e-009 -2.93294e-009 -2.52435e-009 -3.67788e-009 -1.69322e-009 -7.73091 5.47488 -0.417314 -2.52434e-009 -3.67789e-009 -1.69323e-009 -2.90554 0.965183 -0.102902 -2.52435e-009 -3.67788e-009 -1.69323e-009 -10.2786 0.731801 -0.0259123 -2.52434e-009 -3.67788e-009 -1.69323e-009 -2.22167 -0.733487 0.20892 -2.03217e-016 0 -3.88251e-019 -15.1104 -24.8066 4.87129 -0.65184 51.0367 0.990019 -8.3575 -16.4361 -17.973 2.03217e-016 0 3.88251e-019 20.1854 -28.4768 -9.84449 0.340755 38.782 -0.38649 -0.0122215 15.9909 3.82146 
31.5417 79.2761 38.1658 -3.06569 -5.45868 78.4853 10.0115 47.5183 2.39195 3.72878 -10.1872 1.38441 -3.49079 3.22824 -3.10106 -12.1049 -37.2539 -10.5772 -0 0 0 -0 0 0 3.29861e-013 2.16236e-012 -4.99563e-013 55.8077 11.267 27.4296 -18.6905 -11.4844 35.4909 -0.243933 14.5368 2.0812 3.53511e-009 -1.46467e-010 3.42839e-011 6.11433e-009 -2.55986e-010 1.32951e-011 3.53511e-009 -1.4646e-010 3.42781e-011 7.73091 5.47488 0.417314 3.53511e-009 -1.46464e-010 3.42804e-011 2.90554 0.965183 0.102902 3.53511e-009 -1.46463e-010 3.42839e-011 10.2786 0.731801 0.0259123 3.53511e-009 -1.46462e-010 3.42927e-011 2.22167 -0.733487 -0.20892 3.29538e-013 2.16229e-012 -4.99765e-013 -90.1954 26.7631 9.45731 21.817 -15.485 -43.2978 0.015197 3.38515 -0.476354 -2.02007e-009 -3.29626e-009 -1.47689e-009 -3.49395e-009 -5.71151e-009 -2.55833e-009 -2.02008e-009 -3.29625e-009 -1.47687e-009 -7.73091 5.47488 -0.417314 -2.02007e-009 -3.29626e-009 -1.47689e-009 -2.90554 0.965183 -0.102902 -2.02008e-009 -3.29626e-009 -1.47688e-009 -10.2786 0.731801 -0.0259123 -2.02007e-009 -3.29626e-009 -1.47689e-009 -2.22167 -0.733487 0.20892 -2.03217e-016 0 -3.88251e-019 -15.988 -24.5949 5.4422 -0.626476 50.3144 0.959606 -8.34002 -15.4988 -18.6115 2.03217e-016 0 3.88251e-019 19.7172 -28.4023 -9.90438 0.344113 39.034 -0.410557 0.561668 15.9573 1.07483 
